<svg width="236" height="82" viewBox="0 0 236 82" fill="none" xmlns="http://www.w3.org/2000/svg">
<path d="M0.0178797 40.8067L40.549 81.3755C40.549 81.3755 40.7703 81.3956 40.7703 81.295V26.4315H40.7501L26.529 40.6457C26.4888 40.6859 26.4888 40.7665 26.529 40.8269L27.5348 41.8335C27.5348 41.8335 27.575 41.8939 27.575 41.9141V49.444C27.575 49.5446 27.4342 49.605 27.3538 49.5245L18.6642 40.8067C18.6642 40.8067 18.6039 40.6658 18.6642 40.6255L40.73 18.5392C40.73 18.5392 40.7703 18.4788 40.7703 18.4587V0.137336C40.7703 0.016536 40.6295 -0.0438642 40.549 0.0366693L0.0178797 40.6255C0.0178797 40.6255 -0.0223497 40.7463 0.0178797 40.8067Z" fill="white"/>
<path d="M62.9165 40.7465L56.3591 47.31C56.3591 47.31 56.1379 47.3301 56.1379 47.2295V15.298C56.1379 15.298 56.1379 15.2376 56.0976 15.2174L43.1639 2.27166C43.1639 2.27166 42.9426 2.25153 42.9426 2.3522V79.1006C42.9426 79.2214 43.0834 79.2617 43.1639 79.1811L81.3818 40.9277C81.3818 40.9277 81.4019 40.7063 81.3014 40.7063H63.0171C63.0171 40.7063 62.9567 40.7063 62.9366 40.7465" fill="white"/>
<path d="M91.4036 65.6239V50.7051H93.415V63.6911H101.582V65.6239H91.4036Z" fill="white"/>
<path d="M92.9322 51.188H91.8862V65.1203H101.099V64.1941H92.9322V51.188Z" fill="white"/>
<path d="M115.28 65.8453C114.153 65.8453 113.107 65.6238 112.202 65.2211C111.297 64.7983 110.492 64.2346 109.849 63.5299C109.205 62.8253 108.682 61.9998 108.34 61.0938C107.998 60.1878 107.817 59.2013 107.817 58.1946C107.817 57.1879 107.998 56.1611 108.36 55.235C108.722 54.3089 109.225 53.4834 109.869 52.7787C110.513 52.074 111.317 51.4902 112.242 51.0875C113.168 50.6647 114.214 50.4634 115.32 50.4634C116.426 50.4634 117.472 50.6647 118.377 51.0875C119.303 51.5103 120.087 52.074 120.751 52.7787C121.395 53.4834 121.918 54.2887 122.259 55.2149C122.601 56.0806 122.762 56.9866 122.782 57.9329L122.943 58.1141L122.782 58.3154C122.782 59.2617 122.581 60.1878 122.239 61.0535C121.877 61.9797 121.354 62.8051 120.711 63.5098C120.067 64.2145 119.262 64.7983 118.337 65.201C117.412 65.6238 116.366 65.8251 115.26 65.8251M115.28 52.3761C114.495 52.3761 113.771 52.517 113.107 52.819C112.444 53.121 111.88 53.5237 111.398 54.0471C110.915 54.5706 110.533 55.1746 110.271 55.8793C110.01 56.5839 109.869 57.3289 109.869 58.1342C109.869 58.9395 110.01 59.7247 110.271 60.4294C110.553 61.1341 110.935 61.7582 111.418 62.2615C111.9 62.7649 112.484 63.1877 113.148 63.4897C113.811 63.7917 114.535 63.9326 115.32 63.9326C116.104 63.9326 116.849 63.7715 117.492 63.4897C118.156 63.1877 118.739 62.785 119.202 62.2615C119.685 61.7381 120.067 61.1341 120.328 60.4495C120.59 59.7449 120.731 58.9999 120.731 58.1946C120.731 57.3893 120.59 56.6041 120.308 55.8994C120.027 55.1947 119.645 54.5907 119.182 54.0673C118.699 53.5639 118.136 53.1411 117.452 52.8391C116.788 52.5371 116.044 52.3761 115.28 52.3761Z" fill="white"/>
<path d="M121.797 55.3961C121.455 54.5304 120.992 53.7855 120.389 53.1211C119.785 52.4567 119.041 51.9332 118.176 51.5507C117.311 51.1681 116.366 50.9668 115.32 50.9668C114.274 50.9668 113.308 51.1681 112.443 51.5507C111.578 51.9332 110.854 52.4768 110.231 53.1412C109.627 53.8056 109.145 54.5707 108.803 55.4364C108.461 56.3021 108.3 57.2081 108.3 58.1745V58.2148C108.3 59.1611 108.461 60.0872 108.803 60.9328C109.125 61.7986 109.607 62.5636 110.211 63.2079C110.814 63.8723 111.558 64.3958 112.403 64.7783C113.248 65.1608 114.214 65.3622 115.259 65.3622C116.305 65.3622 117.271 65.1608 118.136 64.7783C119.001 64.3958 119.745 63.8522 120.349 63.1878C120.952 62.5234 121.435 61.7583 121.777 60.8925C122.119 60.0268 122.28 59.1208 122.28 58.1544C122.28 58.1544 122.28 58.1343 122.28 58.1141C122.28 57.1477 122.119 56.2417 121.777 55.376M121.213 58.1947C121.213 59.0604 121.073 59.8657 120.771 60.6308C120.489 61.3959 120.067 62.0401 119.544 62.6039C119.021 63.1676 118.397 63.6106 117.673 63.9327C116.949 64.2548 116.165 64.4159 115.3 64.4159C114.435 64.4159 113.65 64.2548 112.906 63.9126C112.182 63.5904 111.558 63.1273 111.035 62.5636C110.512 61.9999 110.11 61.3355 109.808 60.5704C109.507 59.8053 109.366 59 109.366 58.1343V58.094C109.366 57.2283 109.507 56.4229 109.808 55.6579C110.11 54.8928 110.512 54.2485 111.035 53.6848C111.558 53.1211 112.182 52.6781 112.906 52.356C113.63 52.0339 114.415 51.8728 115.28 51.8728C116.145 51.8728 116.949 52.0339 117.673 52.3761C118.397 52.6983 119.021 53.1613 119.544 53.7251C120.067 54.2888 120.469 54.9532 120.771 55.7183C121.073 56.4833 121.213 57.2887 121.213 58.1544V58.1947Z" fill="white"/>
<path d="M136.903 65.8453C135.736 65.8453 134.69 65.6439 133.745 65.2413C132.82 64.8386 132.015 64.2749 131.371 63.5702C130.748 62.8655 130.245 62.0602 129.903 61.1341C129.561 60.2079 129.4 59.2214 129.4 58.1946C129.4 57.1678 129.581 56.1813 129.923 55.2753C130.265 54.3491 130.768 53.5237 131.412 52.819C132.055 52.1143 132.84 51.5304 133.745 51.1076C134.65 50.6848 135.676 50.4634 136.782 50.4634C137.386 50.4634 137.929 50.5036 138.432 50.5842C138.935 50.6647 139.417 50.8056 139.84 50.9667C140.262 51.1278 140.684 51.3492 141.067 51.5908C141.449 51.8324 141.831 52.0942 142.193 52.4163L142.575 52.7385L141.248 54.2686L140.886 53.9465C140.363 53.5035 139.779 53.121 139.156 52.8391C138.532 52.5573 137.708 52.3962 136.742 52.3962C135.978 52.3962 135.254 52.5573 134.63 52.8391C133.986 53.1411 133.423 53.5639 132.96 54.0673C132.498 54.5907 132.136 55.1947 131.874 55.8994C131.613 56.6041 131.492 57.349 131.492 58.1141C131.492 58.9999 131.613 59.7851 131.874 60.4898C132.116 61.1945 132.478 61.7985 132.96 62.3018C133.423 62.8051 134.006 63.2078 134.67 63.4897C135.334 63.7715 136.118 63.9326 136.963 63.9326C137.366 63.9326 137.768 63.8923 138.15 63.8118C138.552 63.7313 138.914 63.6306 139.276 63.4897C139.639 63.3487 139.96 63.1877 140.282 63.0065C140.503 62.8655 140.725 62.7447 140.906 62.5837V59.3221H136.259V57.3893H142.897V63.4695L142.736 63.6105C142.072 64.1943 141.228 64.7178 140.262 65.1406C139.256 65.5835 138.15 65.805 136.943 65.805" fill="white"/>
<path d="M136.722 58.8588H141.368V62.8452C141.107 63.0466 140.825 63.2479 140.483 63.4492C140.161 63.6304 139.799 63.8116 139.417 63.9526C139.035 64.0935 138.633 64.2143 138.21 64.2948C137.788 64.3754 137.345 64.4156 136.923 64.4156C135.998 64.4156 135.173 64.2546 134.429 63.9324C133.685 63.6103 133.061 63.1875 132.558 62.6238C132.035 62.06 131.653 61.3956 131.371 60.6306C131.09 59.8655 130.969 59.0199 130.969 58.134V58.0938C130.969 57.2683 131.11 56.4629 131.391 55.718C131.673 54.9529 132.055 54.3087 132.578 53.7248C133.081 53.1611 133.705 52.698 134.389 52.3759C135.093 52.0537 135.877 51.8725 136.722 51.8725C137.768 51.8725 138.633 52.0336 139.337 52.3557C140.041 52.6779 140.644 53.0805 141.187 53.5436L141.871 52.7785C141.529 52.4765 141.167 52.2349 140.805 51.9933C140.443 51.7719 140.061 51.5705 139.659 51.4095C139.256 51.2484 138.814 51.1276 138.351 51.0471C137.889 50.9665 137.366 50.9263 136.782 50.9263C135.756 50.9263 134.811 51.1276 133.966 51.5101C133.121 51.9128 132.397 52.4363 131.794 53.1007C131.19 53.7651 130.728 54.5301 130.406 55.3959C130.084 56.2616 129.923 57.1676 129.923 58.1139V58.1542C129.923 59.1407 130.084 60.0668 130.406 60.9326C130.728 61.7983 131.19 62.5634 131.774 63.2076C132.377 63.8519 133.101 64.3754 133.966 64.7579C134.831 65.1404 135.817 65.3216 136.923 65.3216C138.029 65.3216 139.095 65.1203 140.041 64.6975C140.966 64.2747 141.751 63.7915 142.394 63.2479V57.8924H136.742V58.8387L136.722 58.8588Z" fill="white"/>
<path d="M152.492 50.7051H150.48V65.6239H152.492V50.7051Z" fill="white"/>
<path d="M151.989 51.188H150.963V65.1203H151.989V51.188Z" fill="white"/>
<path d="M165.687 65.825C164.52 65.825 163.434 65.6237 162.489 65.221C161.543 64.8385 160.618 64.2345 159.753 63.4694L159.391 63.1473L160.719 61.6172L161.081 61.9594C161.463 62.3017 161.825 62.6037 162.167 62.8453C162.509 63.0869 162.871 63.2882 163.253 63.4292C163.615 63.5701 163.997 63.6909 164.42 63.7714C165.204 63.9325 166.25 63.9526 167.035 63.711C167.417 63.5902 167.719 63.4292 167.98 63.2077C168.221 63.0064 168.423 62.7648 168.563 62.4829C168.704 62.2212 168.765 61.9192 168.765 61.597C168.765 61.2548 168.724 60.9729 168.624 60.7313C168.543 60.53 168.382 60.3286 168.161 60.1474C167.9 59.9461 167.538 59.7447 167.095 59.5837C166.612 59.4025 165.989 59.2213 165.224 59.0803C164.359 58.8991 163.615 58.6777 162.992 58.4562C162.348 58.2146 161.805 57.9126 161.403 57.5703C160.96 57.2079 160.638 56.765 160.437 56.2818C160.236 55.8187 160.135 55.2751 160.135 54.6913C160.135 54.0671 160.276 53.5034 160.518 52.9799C160.779 52.4766 161.121 52.0337 161.584 51.6511C162.026 51.2887 162.569 50.9867 163.153 50.7854C163.736 50.5841 164.4 50.4834 165.104 50.4834C166.17 50.4834 167.115 50.6445 167.9 50.9263C168.684 51.2283 169.448 51.6914 170.193 52.2753L170.575 52.5773L169.288 54.1678L168.905 53.8457C168.302 53.3222 167.678 52.9397 167.055 52.7182C166.029 52.3558 164.762 52.2551 163.816 52.5773C163.454 52.6981 163.153 52.8591 162.891 53.0605C162.65 53.2618 162.469 53.4833 162.328 53.7249C162.207 53.9665 162.147 54.2483 162.147 54.5101C162.147 54.8523 162.187 55.1342 162.288 55.3758C162.368 55.5973 162.529 55.7986 162.75 55.9798C162.992 56.1811 163.374 56.3825 163.857 56.5637C164.359 56.7449 165.023 56.9261 165.808 57.1073C167.517 57.4495 168.724 57.9529 169.509 58.6173C170.334 59.3219 170.756 60.2682 170.756 61.436C170.756 62.1004 170.615 62.7044 170.354 63.2278C170.092 63.7714 169.73 64.2144 169.267 64.5969C168.805 64.9593 168.262 65.2613 167.658 65.4626C167.035 65.664 166.371 65.7646 165.647 65.7646M160.779 63.0466C161.101 63.3084 161.403 63.5298 161.724 63.7312C161.684 63.711 161.644 63.6909 161.624 63.6506C161.362 63.4694 161.081 63.248 160.799 63.0265L160.779 63.0466ZM161.423 53.4229C161.242 53.7853 161.141 54.2081 161.141 54.651C161.141 55.1543 161.222 55.557 161.362 55.9194C161.503 56.2617 161.724 56.5637 162.046 56.8254C162.368 57.1073 162.831 57.3489 163.374 57.5703C163.937 57.7918 164.641 57.973 165.446 58.1542C166.25 58.3153 166.934 58.4965 167.477 58.6978C168.02 58.8991 168.463 59.1407 168.805 59.4226C169.167 59.7246 169.428 60.0468 169.569 60.4293C169.71 60.7716 169.77 61.1742 169.77 61.597C169.77 62.1205 169.67 62.5634 169.448 62.9661C169.388 63.107 169.308 63.2278 169.227 63.3285C169.328 63.1876 169.428 63.0265 169.509 62.8453C169.71 62.4426 169.811 61.9997 169.811 61.5165C169.811 60.6105 169.509 59.9259 168.905 59.4226C168.262 58.879 167.155 58.4361 165.627 58.1341C164.762 57.9529 164.078 57.7717 163.515 57.5502C162.931 57.3287 162.469 57.0871 162.127 56.8053C161.765 56.5033 161.503 56.161 161.362 55.7785C161.222 55.4161 161.161 55.0335 161.161 54.5906C161.161 54.1477 161.242 53.7853 161.403 53.4229M167.075 51.7115C167.175 51.7518 167.296 51.7719 167.397 51.8122C167.98 52.0337 168.584 52.3558 169.147 52.7987L169.187 52.7585C168.644 52.3759 168.101 52.0739 167.558 51.8525C167.417 51.7921 167.256 51.7518 167.095 51.7115" fill="white"/>
<path d="M169.227 59.0399C168.503 58.4359 167.337 57.9729 165.727 57.6306C164.903 57.4494 164.239 57.2682 163.696 57.0669C163.173 56.8655 162.75 56.6441 162.449 56.4025C162.147 56.1609 161.946 55.879 161.825 55.5971C161.704 55.2951 161.664 54.973 161.664 54.5905V54.5502C161.664 54.1878 161.745 53.8455 161.906 53.5435C162.067 53.2214 162.288 52.9395 162.59 52.7181C162.891 52.4765 163.253 52.2953 163.656 52.1543C164.078 52.0134 164.541 51.953 165.064 51.953C165.828 51.953 166.552 52.0738 167.216 52.3154C167.88 52.557 168.543 52.9597 169.207 53.5234L169.871 52.7181C169.167 52.1543 168.443 51.7315 167.719 51.4497C166.975 51.1678 166.11 51.0269 165.104 51.0269C164.46 51.0269 163.857 51.1275 163.314 51.3087C162.771 51.4899 162.308 51.7517 161.906 52.0939C161.503 52.4362 161.202 52.8187 160.96 53.2617C160.739 53.7046 160.618 54.1878 160.618 54.7113V54.7515C160.618 55.275 160.699 55.7582 160.88 56.1609C161.041 56.5635 161.322 56.9259 161.704 57.2481C162.087 57.5702 162.569 57.8319 163.173 58.0534C163.776 58.295 164.48 58.4963 165.325 58.6574C166.13 58.8185 166.773 58.9997 167.276 59.1809C167.779 59.3621 168.181 59.5835 168.483 59.8251C168.785 60.0667 168.986 60.3285 169.107 60.6305C169.227 60.9325 169.268 61.2546 169.268 61.6371V61.6774C169.268 62.0801 169.187 62.4425 169.006 62.7847C168.825 63.127 168.604 63.4089 168.282 63.6706C167.98 63.9122 167.598 64.1135 167.176 64.2343C166.733 64.3753 166.25 64.4357 165.748 64.4357C165.245 64.4357 164.762 64.3954 164.319 64.3149C163.877 64.2142 163.475 64.1135 163.072 63.9323C162.67 63.7713 162.288 63.5498 161.906 63.2881C161.523 63.0263 161.141 62.7243 160.759 62.3619L160.075 63.127C160.9 63.8719 161.785 64.4357 162.67 64.7981C163.555 65.1605 164.561 65.3618 165.687 65.3618C166.371 65.3618 166.975 65.2611 167.538 65.0799C168.101 64.8987 168.584 64.637 168.986 64.2947C169.388 63.9726 169.71 63.5699 169.952 63.0867C170.193 62.6237 170.293 62.1002 170.293 61.5566V61.5163C170.293 60.4895 169.931 59.6842 169.227 59.0802" fill="white"/>
<path d="M181.779 65.6239V52.6177H176.931V50.7051H188.658V52.6177H183.81V65.6239H181.779Z" fill="white"/>
<path d="M177.434 52.1343H182.282V65.1203H183.308V52.1343H188.155V51.188H177.434V52.1343Z" fill="white"/>
<path d="M197.669 50.7051H195.658V65.6239H197.669V50.7051Z" fill="white"/>
<path d="M197.187 51.188H196.161V65.1203H197.187V51.188Z" fill="white"/>
<path d="M212.474 65.8453C211.428 65.8453 210.422 65.6439 209.517 65.2413C208.612 64.8386 207.827 64.295 207.164 63.6105C206.5 62.9259 205.977 62.1005 205.615 61.1743C205.253 60.2482 205.052 59.2415 205.052 58.1946C205.052 57.1477 205.233 56.1209 205.615 55.1947C205.997 54.2686 206.52 53.4431 207.164 52.7385C207.827 52.0338 208.612 51.47 209.517 51.0674C210.422 50.6647 211.428 50.4634 212.494 50.4634C213.158 50.4634 213.741 50.5238 214.284 50.6446C214.827 50.7654 215.33 50.9264 215.793 51.1278C216.235 51.3291 216.678 51.5908 217.08 51.8727C217.462 52.1546 217.844 52.4566 218.227 52.819L218.609 53.1613L217.181 54.631L216.839 54.2887C216.537 54.0069 216.235 53.7451 215.934 53.5035C215.632 53.2821 215.31 53.0807 214.948 52.9196C214.606 52.7586 214.224 52.6177 213.822 52.517C212.776 52.2754 211.428 52.3358 210.362 52.7988C209.718 53.0807 209.135 53.4834 208.652 54.0069C208.169 54.5303 207.787 55.1343 207.526 55.839C207.244 56.5235 207.123 57.2886 207.123 58.1141C207.123 58.9395 207.264 59.7247 207.546 60.4294C207.827 61.1341 208.21 61.7582 208.692 62.2817C209.175 62.785 209.738 63.2078 210.402 63.4897C211.83 64.1339 213.701 64.0333 214.928 63.4293C215.612 63.087 216.296 62.5635 216.959 61.8991L217.301 61.5569L218.709 62.9259L218.347 63.2682C217.965 63.6507 217.543 63.993 217.161 64.295C216.738 64.6171 216.296 64.899 215.813 65.1205C215.35 65.3419 214.827 65.5231 214.284 65.6439C213.721 65.7647 213.118 65.8453 212.474 65.8453ZM207.948 53.3626L207.908 53.4029C207.345 54.0069 206.882 54.7317 206.56 55.5571C206.238 56.3625 206.057 57.2483 206.057 58.1543C206.057 59.1207 206.218 60.0066 206.54 60.8119C206.862 61.6173 207.304 62.3421 207.888 62.9259C208.451 63.5299 209.155 63.993 209.919 64.3353C209.919 64.3353 209.959 64.3353 209.98 64.3554C209.215 64.0131 208.531 63.5299 207.988 62.9058C207.425 62.3018 206.962 61.577 206.641 60.7515C206.319 59.9462 206.158 59.0603 206.158 58.1141C206.158 57.1678 206.319 56.2417 206.641 55.4363C206.962 54.631 207.405 53.9263 207.968 53.3022M214.546 51.7116C214.847 51.8123 215.129 51.913 215.39 52.0338C215.793 52.215 216.175 52.4566 216.537 52.7385C216.758 52.8995 216.959 53.0807 217.181 53.2619L217.221 53.2217C217 53.0203 216.778 52.8593 216.537 52.6781C216.175 52.4163 215.793 52.215 215.411 52.0338C215.149 51.913 214.867 51.8123 214.546 51.7116Z" fill="white"/>
<path d="M215.149 63.8723C214.405 64.2347 213.54 64.436 212.514 64.436C211.689 64.436 210.905 64.275 210.181 63.9528C209.457 63.6307 208.853 63.1878 208.33 62.624C207.807 62.0603 207.385 61.3959 207.083 60.6308C206.781 59.8657 206.62 59.0403 206.62 58.1745V58.1343C206.62 57.2685 206.761 56.4431 207.063 55.6981C207.365 54.9331 207.767 54.2888 208.29 53.7251C208.813 53.1613 209.436 52.7184 210.161 52.3963C210.865 52.0741 211.649 51.9131 212.494 51.9131C213.017 51.9131 213.5 51.9735 213.942 52.0741C214.385 52.1748 214.807 52.3157 215.169 52.4969C215.551 52.6781 215.893 52.8996 216.235 53.1412C216.577 53.4029 216.879 53.6647 217.181 53.9667L217.925 53.2016C217.563 52.8593 217.201 52.5775 216.819 52.2956C216.436 52.0339 216.034 51.7923 215.612 51.5909C215.189 51.3896 214.707 51.2487 214.204 51.1279C213.701 51.0272 213.138 50.9668 212.514 50.9668C211.508 50.9668 210.583 51.148 209.738 51.5305C208.893 51.9131 208.149 52.4164 207.546 53.0808C206.922 53.7452 206.439 54.5103 206.097 55.376C205.755 56.2417 205.574 57.188 205.574 58.1544V58.1947C205.574 59.2013 205.735 60.1275 206.097 61.0133C206.439 61.8791 206.922 62.6441 207.546 63.2884C208.169 63.9327 208.893 64.436 209.738 64.8186C210.583 65.181 211.508 65.3823 212.494 65.3823C213.097 65.3823 213.661 65.3219 214.184 65.2011C214.707 65.0803 215.189 64.9192 215.632 64.6978C216.074 64.4763 216.497 64.2347 216.879 63.9327C217.261 63.6307 217.663 63.3086 218.025 62.9462L217.321 62.2616C216.617 62.9663 215.893 63.5099 215.149 63.8723Z" fill="white"/>
<path d="M230.275 65.8249C229.109 65.8249 228.023 65.6236 227.077 65.2209C226.132 64.8384 225.206 64.2344 224.342 63.4693L223.979 63.1472L225.307 61.617L225.669 61.9593C226.031 62.3016 226.393 62.5834 226.755 62.8452C227.097 63.0868 227.459 63.268 227.842 63.429C228.204 63.57 228.586 63.6908 229.008 63.7713C229.793 63.9324 230.839 63.9525 231.623 63.7109C232.005 63.5901 232.307 63.429 232.568 63.2076C232.83 63.0062 233.011 62.7646 233.152 62.5029C233.293 62.2412 233.353 61.9392 233.353 61.617C233.353 61.2748 233.313 60.9929 233.212 60.7513C233.132 60.55 232.971 60.3486 232.749 60.1674C232.488 59.9661 232.126 59.7648 231.683 59.6037C231.201 59.4225 230.577 59.2413 229.813 59.1004C228.948 58.9192 228.204 58.6977 227.58 58.4762C226.936 58.2346 226.393 57.9326 225.991 57.5904C225.548 57.228 225.227 56.785 225.025 56.3018C224.824 55.8388 224.724 55.2952 224.724 54.7113C224.724 54.0872 224.865 53.5234 225.126 53C225.388 52.4966 225.729 52.0537 226.172 51.6712C226.615 51.3088 227.137 51.0068 227.741 50.8054C228.324 50.6041 228.988 50.5034 229.692 50.5034C230.758 50.5034 231.704 50.6645 232.488 50.9464C233.272 51.2484 234.037 51.7114 234.781 52.2953L235.163 52.5973L233.876 54.1878L233.494 53.8657C232.89 53.3422 232.267 52.9597 231.643 52.7382C230.617 52.3758 229.35 52.2752 228.405 52.5973C228.043 52.7181 227.741 52.8792 227.479 53.0805C227.238 53.2818 227.057 53.5033 226.936 53.7449C226.816 53.9865 226.755 54.2482 226.755 54.5502C226.755 54.8925 226.796 55.1744 226.896 55.416C226.977 55.6374 227.137 55.8388 227.359 56.0401C227.62 56.2414 227.982 56.4428 228.465 56.624C228.968 56.8052 229.612 56.9864 230.416 57.1676C232.126 57.5098 233.353 58.0132 234.137 58.6776C234.962 59.3822 235.385 60.3285 235.385 61.4962C235.385 62.1606 235.244 62.7646 234.982 63.2881C234.721 63.8317 234.359 64.2746 233.896 64.6572C233.433 65.0196 232.91 65.3216 232.287 65.5229C231.683 65.7242 231 65.8249 230.275 65.8249ZM225.367 63.0465C225.669 63.2881 225.991 63.5297 226.293 63.7109C226.252 63.7109 226.232 63.6706 226.192 63.6505C225.931 63.4693 225.649 63.2478 225.367 63.0264H225.347L225.367 63.0465ZM225.991 53.4228C225.81 53.7852 225.709 54.208 225.709 54.6509C225.709 55.1542 225.79 55.5569 225.931 55.9193C226.071 56.2616 226.293 56.5636 226.615 56.8253C226.956 57.1072 227.399 57.3488 227.942 57.5702C228.505 57.7917 229.209 57.9729 230.014 58.1541C230.818 58.3152 231.502 58.4964 232.045 58.6977C232.589 58.899 233.051 59.1406 233.373 59.4225C233.735 59.7044 233.997 60.0466 234.137 60.4292C234.278 60.7916 234.339 61.1741 234.339 61.5969C234.339 62.1204 234.238 62.5633 234.017 62.966C233.956 63.0868 233.896 63.1874 233.816 63.3082C233.916 63.1673 233.997 63.0264 234.077 62.8653C234.278 62.4626 234.379 62.0197 234.379 61.5365C234.379 60.6305 234.077 59.946 233.474 59.4426C232.83 58.899 231.724 58.4561 230.195 58.1541C229.33 57.9729 228.646 57.7917 228.083 57.5702C227.5 57.3488 227.037 57.1072 226.695 56.8253C226.333 56.5233 226.071 56.181 225.931 55.7985C225.79 55.4562 225.729 55.0536 225.729 54.6308C225.729 54.208 225.81 53.8254 225.971 53.463M231.663 51.7114C231.764 51.7517 231.885 51.7718 231.985 51.8121C232.568 52.0134 233.172 52.3557 233.735 52.7986L233.775 52.7584C233.232 52.3758 232.689 52.0738 232.146 51.8524C232.005 51.792 231.844 51.7517 231.663 51.7114Z" fill="white"/>
<path d="M233.816 59.0399C233.091 58.4359 231.925 57.9729 230.316 57.6306C229.491 57.4494 228.807 57.2682 228.284 57.0669C227.761 56.8655 227.339 56.6441 227.037 56.4025C226.735 56.1609 226.534 55.879 226.413 55.5971C226.293 55.2951 226.252 54.973 226.252 54.5905V54.5502C226.252 54.1878 226.333 53.8455 226.494 53.5435C226.655 53.2214 226.876 52.9395 227.178 52.7181C227.479 52.4765 227.842 52.2953 228.244 52.1543C228.666 52.0134 229.129 51.953 229.652 51.953C230.416 51.953 231.14 52.0738 231.804 52.3154C232.468 52.557 233.132 52.9597 233.795 53.5234L234.459 52.7181C233.755 52.1543 233.031 51.7315 232.307 51.4497C231.563 51.1678 230.698 51.0269 229.692 51.0269C229.048 51.0269 228.445 51.1275 227.902 51.3087C227.359 51.4899 226.896 51.7517 226.494 52.0939C226.092 52.4362 225.79 52.8187 225.569 53.2617C225.347 53.7046 225.227 54.1878 225.227 54.7113V54.7515C225.227 55.275 225.307 55.7582 225.488 56.1609C225.649 56.5635 225.931 56.9259 226.313 57.2481C226.695 57.5702 227.178 57.8319 227.781 58.0534C228.385 58.295 229.089 58.4963 229.933 58.6574C230.738 58.8185 231.382 58.9997 231.885 59.1809C232.387 59.3621 232.79 59.5835 233.091 59.8251C233.393 60.0667 233.594 60.3285 233.715 60.6305C233.836 60.9325 233.896 61.2546 233.896 61.6371V61.6774C233.896 62.0801 233.816 62.4425 233.635 62.7847C233.454 63.127 233.232 63.4089 232.91 63.6706C232.609 63.9122 232.227 64.1135 231.804 64.2343C231.362 64.3753 230.899 64.4357 230.376 64.4357C229.853 64.4357 229.37 64.3954 228.948 64.3149C228.505 64.2142 228.103 64.1135 227.701 63.9323C227.298 63.7713 226.916 63.5498 226.534 63.2881C226.152 63.0263 225.77 62.7243 225.388 62.3619L224.704 63.127C225.548 63.8719 226.413 64.4357 227.298 64.7981C228.183 65.1605 229.189 65.3618 230.316 65.3618C231 65.3618 231.603 65.2611 232.166 65.0799C232.729 64.8987 233.212 64.637 233.614 64.2947C234.017 63.9726 234.339 63.5699 234.56 63.0867C234.801 62.6237 234.902 62.1002 234.902 61.5566V61.5163C234.902 60.4895 234.54 59.6842 233.836 59.0802" fill="white"/>
<path d="M235.385 44.3627V38.0609C235.385 37.92 235.264 37.8193 235.143 37.8193H220.158C220.017 37.8193 219.916 37.9401 219.896 38.0609V44.3627C219.896 44.5036 219.997 44.6043 220.138 44.6043H235.143C235.284 44.6043 235.385 44.4835 235.385 44.3627Z" fill="white"/>
<path d="M138.733 15.6928C138.733 15.6928 138.593 15.5317 138.512 15.5317H131.13C131.13 15.5317 130.949 15.5921 130.909 15.6928L118.84 44.2621C118.78 44.4231 118.9 44.6245 119.081 44.6245H126.946C127.047 44.6245 127.147 44.5641 127.188 44.4634L129.139 39.571C129.139 39.571 129.219 39.4703 129.279 39.43L138.19 35.7255C138.412 35.6248 138.391 35.3228 138.17 35.2423L131.794 33.3498C131.653 33.3095 131.573 33.1484 131.633 33.0075L134.549 25.6387C134.63 25.4172 134.932 25.4172 135.012 25.6387L138.834 35.4235L142.334 44.4433C142.334 44.4433 142.475 44.6043 142.575 44.6043H150.601C150.782 44.6043 150.903 44.4231 150.822 44.2419L138.753 15.6727L138.733 15.6928Z" fill="white"/>
<path d="M209.376 44.6248H218.005C218.207 44.6248 218.327 44.4033 218.207 44.2221L211.77 34.7997C211.689 34.6789 211.73 34.4977 211.87 34.4373C213.56 33.6722 214.908 32.6052 215.913 31.216C216.98 29.7664 217.523 27.9141 217.523 25.6793V25.5988C217.523 22.7599 216.678 20.5251 214.968 18.8742C214.003 17.8877 212.755 17.1226 211.207 16.5589C209.678 16.0153 207.787 15.7334 205.554 15.7334H190.83C190.569 15.7334 190.488 16.0958 190.71 16.2166C192.178 16.9615 193.486 17.8877 194.612 18.995C195.678 20.0419 196.583 21.2298 197.307 22.5385C197.348 22.619 197.428 22.6593 197.529 22.6593H205.152C206.5 22.6593 207.546 22.9411 208.33 23.5049C209.095 24.0686 209.477 24.9344 209.477 26.082V26.1625C209.477 27.2094 209.115 28.0349 208.37 28.659C207.626 29.2832 206.58 29.5852 205.192 29.5852H199.721C199.52 29.5852 199.399 29.8066 199.52 29.9677L209.155 44.4839C209.155 44.4839 209.276 44.6047 209.356 44.6047" fill="white"/>
<path d="M193.767 19.9007C192.44 18.6122 190.871 17.5653 189.04 16.8203C187.21 16.0553 185.239 15.6929 183.086 15.6929C180.934 15.6929 178.963 16.0754 177.132 16.8203C175.302 17.5653 173.713 18.6122 172.365 19.9209C171.018 21.2295 169.972 22.7597 169.207 24.5314C168.443 26.3032 168.081 28.1554 168.081 30.1486V30.2292C168.081 32.2224 168.463 34.0746 169.207 35.8262C169.972 37.5778 170.997 39.108 172.325 40.3965C173.653 41.685 175.222 42.7119 177.052 43.4769C178.882 44.242 180.854 44.6044 183.006 44.6044C185.158 44.6044 187.129 44.2219 188.96 43.4769C190.79 42.732 192.379 41.685 193.727 40.3764C195.075 39.0677 196.121 37.5376 196.885 35.7658C197.649 33.9941 198.011 32.1217 198.011 30.1486V30.0681C198.011 28.0749 197.629 26.2025 196.885 24.471C196.121 22.7194 195.095 21.2094 193.767 19.9007ZM190.147 30.2292C190.147 31.2358 189.966 32.1821 189.624 33.0881C189.282 33.9941 188.799 34.7793 188.196 35.4437C187.592 36.1282 186.848 36.6517 185.963 37.0544C185.098 37.457 184.112 37.6584 183.066 37.6584C182.02 37.6584 181.035 37.457 180.15 37.0544C179.285 36.6517 178.52 36.088 177.897 35.4034C177.273 34.7189 176.79 33.9136 176.449 33.0277C176.107 32.1217 175.926 31.1754 175.926 30.1688V30.0882C175.926 29.0816 176.086 28.1353 176.428 27.2293C176.75 26.3233 177.233 25.5381 177.857 24.8536C178.48 24.1892 179.224 23.6456 180.089 23.2429C180.954 22.8402 181.92 22.6389 182.966 22.6389C184.012 22.6389 184.997 22.8402 185.862 23.263C186.747 23.6657 187.491 24.2294 188.135 24.914C188.779 25.5985 189.262 26.4038 189.604 27.2897C189.945 28.1957 190.127 29.142 190.127 30.1486V30.2292H190.147Z" fill="white"/>
<path d="M118.579 40.457C118.579 40.457 118.679 40.3362 118.679 40.2557V28.075C118.679 27.9341 118.558 27.8334 118.418 27.8334H106.108C105.967 27.8334 105.846 27.9542 105.846 28.075V33.2292C105.846 33.3701 105.967 33.4707 106.108 33.4707H111.096C111.237 33.4707 111.337 33.5916 111.337 33.7325V36.7324C111.337 36.7324 111.297 36.8934 111.217 36.9538C110.07 37.6786 108.602 38.041 106.852 38.041C105.725 38.041 104.72 37.8397 103.794 37.4572C102.869 37.0746 102.085 36.531 101.401 35.8666C100.717 35.1821 100.194 34.3768 99.8317 33.4104C99.4495 32.4641 99.2685 31.4171 99.2685 30.3098V30.2293C99.2685 29.1622 99.4495 28.1757 99.8317 27.2495C100.194 26.3234 100.717 25.5181 101.34 24.8134C101.984 24.1289 102.728 23.5853 103.593 23.1826C104.458 22.7799 105.383 22.5786 106.409 22.5786C107.797 22.5786 109.004 22.8001 110.05 23.243C110.412 23.4041 110.774 23.5853 111.136 23.7866C111.297 23.8873 111.518 23.7866 111.518 23.5651V16.5185C111.518 16.3977 111.438 16.3171 111.337 16.2769C109.869 15.8742 108.22 15.6729 106.369 15.6729C104.217 15.6729 102.225 16.0353 100.375 16.8003C98.5243 17.5453 96.9553 18.5721 95.6277 19.8807C94.3002 21.1894 93.2743 22.7397 92.51 24.5114C91.7657 26.2831 91.3835 28.1757 91.3835 30.189V30.2695C91.3835 32.4037 91.7657 34.3365 92.5301 36.1082C93.2944 37.88 94.3605 39.39 95.7082 40.6785C97.0559 41.9469 98.6651 42.9334 100.495 43.6381C102.346 44.3428 104.337 44.685 106.53 44.685C109.084 44.685 111.357 44.2824 113.369 43.4569C115.34 42.6516 117.07 41.6449 118.538 40.457" fill="white"/>
<path d="M174.638 44.1415C173.451 43.4569 172.385 42.6516 171.44 41.7053C170.253 40.5376 169.268 39.2088 168.483 37.7189C168.443 37.6384 168.362 37.5981 168.262 37.5981H160.276C160.136 37.5981 160.035 37.4773 160.035 37.3565V15.995C160.035 15.8541 159.914 15.7534 159.773 15.7534H152.291C152.15 15.7534 152.029 15.8742 152.029 15.995V44.3629C152.029 44.5039 152.15 44.6045 152.291 44.6045H174.538C174.799 44.6045 174.88 44.2623 174.658 44.1415" fill="white"/>
<path d="M235.123 26.9272H220.137C219.997 26.9272 219.876 27.048 219.876 27.1688V32.9874C219.876 33.1283 219.997 33.2491 220.137 33.2491H235.123C235.264 33.2491 235.364 33.1283 235.364 32.9874V27.1688C235.364 27.0279 235.244 26.9272 235.123 26.9272Z" fill="white"/>
<path d="M220.137 22.5584H235.123C235.264 22.5584 235.384 22.4376 235.384 22.3168V16.015C235.384 15.8741 235.264 15.7734 235.123 15.7734H220.117C219.977 15.7734 219.876 15.8942 219.876 16.015V22.3168C219.876 22.4577 219.997 22.5584 220.137 22.5584Z" fill="white"/>
</svg>
