<svg width="235" height="82" viewBox="0 0 235 82" fill="none" xmlns="http://www.w3.org/2000/svg">
<g clip-path="url(#clip0_4020_32)">
<path d="M0.0403407 40.7902L40.5715 81.3589C40.5715 81.3589 40.7927 81.3791 40.7927 81.2784V26.415H40.7726L26.5515 40.6291C26.5113 40.6694 26.5113 40.7499 26.5515 40.8103L27.5572 41.817C27.5572 41.817 27.5975 41.8774 27.5975 41.8975V49.4274C27.5975 49.5281 27.4567 49.5885 27.3762 49.508L18.6867 40.7902C18.6867 40.7902 18.6263 40.6493 18.6867 40.609L40.7525 18.5227C40.7525 18.5227 40.7927 18.4623 40.7927 18.4422V0.120796C40.7927 -4.56534e-06 40.6519 -0.0604047 40.5715 0.0201288L0.0403407 40.609C0.0403407 40.609 0.000111276 40.7298 0.0403407 40.7902Z" fill="#F9A01B"/>
<path d="M62.939 40.7298L56.3816 47.2933C56.3816 47.2933 56.1603 47.3134 56.1603 47.2128V15.2812C56.1603 15.2812 56.1603 15.2208 56.1201 15.2007L43.1863 2.25494C43.1863 2.25494 42.9651 2.23481 42.9651 2.33547V79.0839C42.9651 79.2047 43.1059 79.2449 43.1863 79.1644L81.4043 40.911C81.4043 40.911 81.4244 40.6895 81.3238 40.6895H63.0396C63.0396 40.6895 62.9792 40.6895 62.9591 40.7298" fill="#F9A01B"/>
<path d="M91.019 67.8293V52.9105H93.0305V65.8965H101.197V67.8293H91.019Z" fill="white"/>
<path d="M92.5477 53.3937H91.5017V67.326H100.714V66.3998H92.5477V53.3937Z" fill="white"/>
<path d="M114.895 68.0508C113.769 68.0508 112.723 67.8293 111.818 67.4266C110.912 67.0038 110.108 66.4401 109.464 65.7354C108.821 65.0308 108.298 64.2053 107.956 63.2993C107.614 62.3933 107.433 61.4068 107.433 60.4001C107.433 59.3934 107.614 58.3666 107.976 57.4405C108.338 56.5144 108.841 55.6889 109.484 54.9842C110.128 54.2796 110.933 53.6957 111.858 53.293C112.783 52.8702 113.829 52.6689 114.935 52.6689C116.042 52.6689 117.088 52.8702 117.993 53.293C118.918 53.7158 119.703 54.2796 120.366 54.9842C121.01 55.6889 121.533 56.4942 121.875 57.4204C122.217 58.2861 122.378 59.1921 122.398 60.1384L122.559 60.3196L122.398 60.5209C122.398 61.4672 122.197 62.3933 121.855 63.259C121.493 64.1852 120.97 65.0106 120.326 65.7153C119.682 66.42 118.878 67.0038 117.953 67.4065C117.027 67.8293 115.981 68.0306 114.875 68.0306M114.895 54.5816C114.111 54.5816 113.387 54.7225 112.723 55.0245C112.059 55.3265 111.496 55.7292 111.013 56.2526C110.53 56.7761 110.148 57.3801 109.887 58.0848C109.625 58.7894 109.484 59.5344 109.484 60.3397C109.484 61.145 109.625 61.9302 109.887 62.6349C110.168 63.3396 110.55 63.9637 111.033 64.467C111.516 64.9704 112.099 65.3932 112.763 65.6952C113.427 65.9972 114.151 66.1381 114.935 66.1381C115.72 66.1381 116.464 65.977 117.108 65.6952C117.772 65.3932 118.355 64.9905 118.818 64.467C119.3 63.9436 119.682 63.3396 119.944 62.655C120.205 61.9504 120.346 61.2054 120.346 60.4001C120.346 59.5948 120.205 58.8096 119.924 58.1049C119.642 57.4002 119.26 56.7962 118.797 56.2728C118.315 55.7694 117.751 55.3466 117.068 55.0446C116.404 54.7426 115.66 54.5816 114.895 54.5816Z" fill="white"/>
<path d="M121.412 57.6016C121.07 56.7358 120.608 55.9909 120.004 55.3265C119.401 54.6621 118.657 54.1386 117.792 53.7561C116.927 53.3736 115.981 53.1722 114.935 53.1722C113.889 53.1722 112.924 53.3736 112.059 53.7561C111.194 54.1386 110.47 54.6822 109.846 55.3466C109.243 56.011 108.76 56.7761 108.418 57.6418C108.076 58.5076 107.915 59.4136 107.915 60.38V60.4203C107.915 61.3665 108.076 62.2927 108.418 63.1383C108.74 64.004 109.223 64.7691 109.826 65.4133C110.43 66.0777 111.174 66.6012 112.019 66.9837C112.863 67.3663 113.829 67.5676 114.875 67.5676C115.921 67.5676 116.886 67.3663 117.751 66.9837C118.616 66.6012 119.361 66.0576 119.964 65.3932C120.567 64.7288 121.05 63.9637 121.392 63.098C121.734 62.2323 121.895 61.3263 121.895 60.3599C121.895 60.3599 121.895 60.3397 121.895 60.3196C121.895 59.3532 121.734 58.4472 121.392 57.5815M120.829 60.4001C120.829 61.2659 120.688 62.0712 120.386 62.8363C120.105 63.6013 119.682 64.2456 119.159 64.8093C118.636 65.3731 118.013 65.816 117.289 66.1381C116.565 66.4603 115.78 66.6213 114.915 66.6213C114.05 66.6213 113.266 66.4603 112.522 66.118C111.797 65.7959 111.174 65.3328 110.651 64.7691C110.128 64.2053 109.726 63.5409 109.424 62.7759C109.122 62.0108 108.981 61.2055 108.981 60.3397V60.2995C108.981 59.4337 109.122 58.6284 109.424 57.8633C109.726 57.0982 110.128 56.454 110.651 55.8902C111.174 55.3265 111.797 54.8836 112.522 54.5614C113.246 54.2393 114.03 54.0782 114.895 54.0782C115.76 54.0782 116.565 54.2393 117.289 54.5816C118.013 54.9037 118.636 55.3668 119.159 55.9305C119.682 56.4942 120.085 57.1586 120.386 57.9237C120.688 58.6888 120.829 59.4941 120.829 60.3599V60.4001Z" fill="white"/>
<path d="M136.518 68.0508C135.352 68.0508 134.306 67.8494 133.36 67.4468C132.435 67.0441 131.631 66.4804 130.987 65.7757C130.363 65.071 129.86 64.2657 129.518 63.3396C129.177 62.4134 129.016 61.4269 129.016 60.4001C129.016 59.3733 129.197 58.3868 129.539 57.4808C129.881 56.5546 130.383 55.7292 131.027 55.0245C131.671 54.3198 132.455 53.736 133.36 53.3132C134.266 52.8904 135.291 52.6689 136.398 52.6689C137.001 52.6689 137.544 52.7091 138.047 52.7897C138.55 52.8702 139.033 53.0112 139.455 53.1722C139.878 53.3333 140.3 53.5548 140.682 53.7964C141.064 54.038 141.447 54.2997 141.809 54.6218L142.191 54.944L140.863 56.4741L140.501 56.152C139.978 55.709 139.395 55.3265 138.771 55.0446C138.148 54.7628 137.323 54.6017 136.357 54.6017C135.593 54.6017 134.869 54.7628 134.245 55.0446C133.602 55.3466 133.039 55.7694 132.576 56.2728C132.113 56.7962 131.751 57.4002 131.49 58.1049C131.228 58.8096 131.108 59.5545 131.108 60.3196C131.108 61.2054 131.228 61.9906 131.49 62.6953C131.731 63.4 132.093 64.004 132.576 64.5073C133.039 65.0106 133.622 65.4133 134.286 65.6952C134.949 65.977 135.734 66.1381 136.579 66.1381C136.981 66.1381 137.383 66.0978 137.766 66.0173C138.168 65.9368 138.53 65.8361 138.892 65.6952C139.254 65.5542 139.576 65.3932 139.898 65.212C140.119 65.071 140.34 64.9502 140.521 64.7892V61.5276H135.875V59.5948H142.513V65.675L142.352 65.816C141.688 66.3998 140.843 66.9233 139.878 67.3461C138.872 67.789 137.766 68.0105 136.559 68.0105" fill="white"/>
<path d="M136.337 61.0645H140.984V65.0509C140.722 65.2523 140.441 65.4536 140.099 65.6549C139.777 65.8361 139.415 66.0173 139.033 66.1583C138.651 66.2992 138.248 66.42 137.826 66.5005C137.403 66.581 136.961 66.6213 136.538 66.6213C135.613 66.6213 134.789 66.4602 134.044 66.1381C133.3 65.816 132.676 65.3932 132.174 64.8294C131.651 64.2657 131.268 63.6013 130.987 62.8362C130.705 62.0712 130.585 61.2256 130.585 60.3397V60.2994C130.585 59.474 130.725 58.6686 131.007 57.9237C131.289 57.1586 131.671 56.5144 132.194 55.9305C132.697 55.3668 133.32 54.9037 134.004 54.5816C134.708 54.2594 135.493 54.0782 136.337 54.0782C137.383 54.0782 138.248 54.2393 138.952 54.5614C139.656 54.8836 140.26 55.2862 140.803 55.7493L141.487 54.9842C141.145 54.6822 140.783 54.4406 140.421 54.199C140.059 53.9776 139.676 53.7762 139.274 53.6152C138.872 53.4541 138.429 53.3333 137.967 53.2528C137.504 53.1722 136.981 53.132 136.398 53.132C135.372 53.132 134.426 53.3333 133.582 53.7158C132.737 54.1185 132.013 54.642 131.409 55.3064C130.806 55.9708 130.343 56.7358 130.021 57.6016C129.699 58.4673 129.539 59.3733 129.539 60.3196V60.3598C129.539 61.3464 129.699 62.2725 130.021 63.1382C130.343 64.004 130.806 64.7691 131.389 65.4133C131.993 66.0576 132.717 66.581 133.582 66.9636C134.447 67.3461 135.432 67.5273 136.538 67.5273C137.645 67.5273 138.711 67.326 139.656 66.9032C140.582 66.4804 141.366 65.9972 142.01 65.4536V60.0981H136.357V61.0444L136.337 61.0645Z" fill="white"/>
<path d="M152.107 52.9105H150.096V67.8293H152.107V52.9105Z" fill="white"/>
<path d="M151.604 53.3937H150.579V67.326H151.604V53.3937Z" fill="white"/>
<path d="M165.302 68.0307C164.136 68.0307 163.05 67.8293 162.104 67.4267C161.159 67.0441 160.234 66.4401 159.369 65.675L159.007 65.3529L160.334 63.8228L160.696 64.165C161.078 64.5073 161.44 64.8093 161.782 65.0509C162.124 65.2925 162.486 65.4938 162.869 65.6348C163.231 65.7757 163.613 65.8965 164.035 65.977C164.82 66.1381 165.866 66.1583 166.65 65.9167C167.032 65.7959 167.334 65.6348 167.596 65.4133C167.837 65.212 168.038 64.9704 168.179 64.6885C168.32 64.4268 168.38 64.1248 168.38 63.8026C168.38 63.4604 168.34 63.1785 168.239 62.9369C168.159 62.7356 167.998 62.5342 167.777 62.353C167.515 62.1517 167.153 61.9504 166.711 61.7893C166.228 61.6081 165.604 61.4269 164.84 61.286C163.975 61.1048 163.231 60.8833 162.607 60.6618C161.963 60.4202 161.42 60.1182 161.018 59.776C160.576 59.4136 160.254 58.9706 160.053 58.4874C159.851 58.0244 159.751 57.4808 159.751 56.8969C159.751 56.2728 159.892 55.709 160.133 55.1856C160.395 54.6822 160.736 54.2393 161.199 53.8568C161.642 53.4944 162.185 53.1924 162.768 52.991C163.351 52.7897 164.015 52.689 164.719 52.689C165.785 52.689 166.731 52.8501 167.515 53.132C168.3 53.434 169.064 53.897 169.808 54.4809L170.19 54.7829L168.903 56.3734L168.521 56.0513C167.917 55.5278 167.294 55.1453 166.67 54.9238C165.644 54.5614 164.377 54.4608 163.432 54.7829C163.07 54.9037 162.768 55.0648 162.507 55.2661C162.265 55.4674 162.084 55.6889 161.943 55.9305C161.823 56.1721 161.762 56.454 161.762 56.7157C161.762 57.058 161.803 57.3398 161.903 57.5814C161.984 57.8029 162.144 58.0042 162.366 58.1854C162.607 58.3868 162.989 58.5881 163.472 58.7693C163.975 58.9505 164.639 59.1317 165.423 59.3129C167.133 59.6552 168.34 60.1585 169.124 60.8229C169.949 61.5276 170.371 62.4738 170.371 63.6416C170.371 64.306 170.231 64.91 169.969 65.4334C169.708 65.977 169.346 66.42 168.883 66.8025C168.42 67.1649 167.877 67.4669 167.274 67.6683C166.65 67.8696 165.986 67.9702 165.262 67.9702M160.394 65.2522C160.716 65.514 161.018 65.7354 161.34 65.9368C161.3 65.9166 161.259 65.8965 161.239 65.8562C160.978 65.675 160.696 65.4536 160.415 65.2321L160.394 65.2522ZM161.038 55.6285C160.857 55.9909 160.757 56.4137 160.757 56.8566C160.757 57.36 160.837 57.7626 160.978 58.125C161.119 58.4673 161.34 58.7693 161.662 59.031C161.984 59.3129 162.446 59.5545 162.989 59.776C163.553 59.9974 164.257 60.1786 165.061 60.3598C165.866 60.5209 166.55 60.7021 167.093 60.9034C167.636 61.1048 168.078 61.3464 168.42 61.6282C168.782 61.9302 169.044 62.2524 169.185 62.6349C169.325 62.9772 169.386 63.3798 169.386 63.8026C169.386 64.3261 169.285 64.769 169.064 65.1717C169.004 65.3126 168.923 65.4334 168.843 65.5341C168.943 65.3932 169.044 65.2321 169.124 65.0509C169.325 64.6482 169.426 64.2053 169.426 63.7221C169.426 62.8161 169.124 62.1316 168.521 61.6282C167.877 61.0846 166.771 60.6417 165.242 60.3397C164.377 60.1585 163.693 59.9773 163.13 59.7558C162.547 59.5344 162.084 59.2928 161.742 59.0109C161.38 58.7089 161.119 58.3666 160.978 57.9841C160.837 57.6217 160.777 57.2392 160.777 56.7962C160.777 56.3533 160.857 55.9909 161.018 55.6285M166.69 53.9172C166.791 53.9574 166.912 53.9776 167.012 54.0178C167.596 54.2393 168.199 54.5614 168.762 55.0044L168.802 54.9641C168.259 54.5816 167.716 54.2796 167.173 54.0581C167.032 53.9977 166.871 53.9574 166.711 53.9172" fill="white"/>
<path d="M168.843 61.2457C168.119 60.6417 166.952 60.1786 165.343 59.8363C164.518 59.6551 163.854 59.4739 163.311 59.2726C162.788 59.0713 162.366 58.8498 162.064 58.6082C161.762 58.3666 161.561 58.0847 161.441 57.8029C161.32 57.5009 161.28 57.1787 161.28 56.7962V56.7559C161.28 56.3935 161.36 56.0513 161.521 55.7493C161.682 55.4271 161.903 55.1453 162.205 54.9238C162.507 54.6822 162.869 54.501 163.271 54.3601C163.693 54.2191 164.156 54.1587 164.679 54.1587C165.443 54.1587 166.168 54.2795 166.831 54.5211C167.495 54.7627 168.159 55.1654 168.823 55.7291L169.487 54.9238C168.783 54.3601 168.058 53.9373 167.334 53.6554C166.59 53.3735 165.725 53.2326 164.719 53.2326C164.076 53.2326 163.472 53.3333 162.929 53.5145C162.386 53.6957 161.923 53.9574 161.521 54.2997C161.119 54.6419 160.817 55.0245 160.576 55.4674C160.354 55.9103 160.234 56.3935 160.234 56.917V56.9573C160.234 57.4807 160.314 57.9639 160.495 58.3666C160.656 58.7693 160.938 59.1317 161.32 59.4538C161.702 59.776 162.185 60.0377 162.788 60.2592C163.392 60.5008 164.096 60.7021 164.941 60.8631C165.745 61.0242 166.389 61.2054 166.892 61.3866C167.395 61.5678 167.797 61.7893 168.099 62.0309C168.4 62.2725 168.601 62.5342 168.722 62.8362C168.843 63.1382 168.883 63.4604 168.883 63.8429V63.8832C168.883 64.2858 168.803 64.6482 168.622 64.9905C168.441 65.3328 168.219 65.6146 167.897 65.8764C167.596 66.118 167.214 66.3193 166.791 66.4401C166.349 66.581 165.866 66.6414 165.363 66.6414C164.86 66.6414 164.377 66.6012 163.935 66.5206C163.492 66.42 163.09 66.3193 162.688 66.1381C162.285 65.977 161.903 65.7556 161.521 65.4938C161.139 65.2321 160.757 64.9301 160.375 64.5677L159.691 65.3328C160.515 66.0777 161.4 66.6414 162.285 67.0038C163.171 67.3662 164.176 67.5676 165.303 67.5676C165.987 67.5676 166.59 67.4669 167.153 67.2857C167.716 67.1045 168.199 66.8428 168.601 66.5005C169.004 66.1784 169.326 65.7757 169.567 65.2925C169.808 64.8294 169.909 64.306 169.909 63.7624V63.7221C169.909 62.6953 169.547 61.89 168.843 61.286" fill="white"/>
<path d="M181.394 67.8293V54.8232H176.547V52.9105H188.274V54.8232H183.426V67.8293H181.394Z" fill="white"/>
<path d="M177.05 54.3399H181.897V67.326H182.923V54.3399H187.771V53.3937H177.05V54.3399Z" fill="white"/>
<path d="M197.285 52.9105H195.273V67.8293H197.285V52.9105Z" fill="white"/>
<path d="M196.802 53.3937H195.776V67.326H196.802V53.3937Z" fill="white"/>
<path d="M212.089 68.0508C211.043 68.0508 210.038 67.8494 209.132 67.4468C208.227 67.0441 207.443 66.5005 206.779 65.816C206.115 65.1314 205.592 64.306 205.23 63.3798C204.868 62.4537 204.667 61.447 204.667 60.4001C204.667 59.3532 204.848 58.3264 205.23 57.4002C205.612 56.4741 206.135 55.6486 206.779 54.944C207.443 54.2393 208.227 53.6756 209.132 53.2729C210.038 52.8702 211.043 52.6689 212.109 52.6689C212.773 52.6689 213.357 52.7293 213.9 52.8501C214.443 52.9709 214.946 53.132 215.408 53.3333C215.851 53.5346 216.293 53.7964 216.696 54.0782C217.078 54.3601 217.46 54.6621 217.842 55.0245L218.224 55.3668L216.796 56.8365L216.454 56.4942C216.152 56.2124 215.851 55.9506 215.549 55.709C215.247 55.4876 214.925 55.2862 214.563 55.1252C214.221 54.9641 213.839 54.8232 213.437 54.7225C212.391 54.4809 211.043 54.5413 209.977 55.0044C209.334 55.2862 208.75 55.6889 208.268 56.2124C207.785 56.7358 207.403 57.3398 207.141 58.0445C206.86 58.729 206.739 59.4941 206.739 60.3196C206.739 61.145 206.88 61.9302 207.161 62.6349C207.443 63.3396 207.825 63.9637 208.308 64.4872C208.791 64.9905 209.354 65.4133 210.018 65.6952C211.446 66.3394 213.316 66.2388 214.543 65.6348C215.227 65.2925 215.911 64.769 216.575 64.1046L216.917 63.7624L218.325 65.1314L217.963 65.4737C217.581 65.8562 217.158 66.1985 216.776 66.5005C216.354 66.8226 215.911 67.1045 215.428 67.326C214.966 67.5474 214.443 67.7286 213.9 67.8494C213.336 67.9702 212.733 68.0508 212.089 68.0508ZM207.564 55.5681L207.523 55.6084C206.96 56.2124 206.497 56.9372 206.176 57.7626C205.854 58.568 205.673 59.4538 205.673 60.3598C205.673 61.3262 205.834 62.2121 206.155 63.0174C206.477 63.8228 206.92 64.5476 207.503 65.1314C208.066 65.7354 208.77 66.1985 209.535 66.5408C209.535 66.5408 209.575 66.5408 209.595 66.5609C208.831 66.2186 208.147 65.7354 207.604 65.1113C207.041 64.5073 206.578 63.7825 206.256 62.957C205.934 62.1517 205.773 61.2658 205.773 60.3196C205.773 59.3733 205.934 58.4472 206.256 57.6418C206.578 56.8365 207.02 56.1318 207.584 55.5077M214.161 53.9172C214.463 54.0178 214.744 54.1185 215.006 54.2393C215.408 54.4205 215.79 54.6621 216.152 54.944C216.374 55.105 216.575 55.2862 216.796 55.4674L216.836 55.4272C216.615 55.2258 216.394 55.0648 216.152 54.8836C215.79 54.6218 215.408 54.4205 215.026 54.2393C214.765 54.1185 214.483 54.0178 214.161 53.9172Z" fill="white"/>
<path d="M214.765 66.0777C214.02 66.4401 213.155 66.6415 212.13 66.6415C211.305 66.6415 210.52 66.4804 209.796 66.1583C209.072 65.8361 208.469 65.3932 207.946 64.8295C207.423 64.2657 207 63.6013 206.699 62.8363C206.397 62.0712 206.236 61.2457 206.236 60.38V60.3397C206.236 59.474 206.377 58.6485 206.678 57.9036C206.98 57.1385 207.382 56.4942 207.905 55.9305C208.428 55.3668 209.052 54.9238 209.776 54.6017C210.48 54.2796 211.265 54.1185 212.109 54.1185C212.632 54.1185 213.115 54.1789 213.558 54.2796C214 54.3802 214.423 54.5212 214.785 54.7024C215.167 54.8836 215.509 55.105 215.851 55.3466C216.193 55.6084 216.494 55.8701 216.796 56.1721L217.54 55.407C217.178 55.0648 216.816 54.7829 216.434 54.501C216.052 54.2393 215.65 53.9977 215.227 53.7964C214.805 53.595 214.322 53.4541 213.819 53.3333C213.316 53.2326 212.753 53.1722 212.13 53.1722C211.124 53.1722 210.199 53.3534 209.354 53.736C208.509 54.1185 207.765 54.6218 207.161 55.2862C206.538 55.9506 206.055 56.7157 205.713 57.5814C205.371 58.4472 205.19 59.3935 205.19 60.3599V60.4001C205.19 61.4068 205.351 62.3329 205.713 63.2188C206.055 64.0845 206.538 64.8496 207.161 65.4939C207.785 66.1381 208.509 66.6415 209.354 67.024C210.199 67.3864 211.124 67.5877 212.109 67.5877C212.713 67.5877 213.276 67.5273 213.799 67.4065C214.322 67.2857 214.805 67.1247 215.247 66.9032C215.69 66.6817 216.112 66.4401 216.494 66.1381C216.877 65.8361 217.279 65.514 217.641 65.1516L216.937 64.4671C216.233 65.1717 215.509 65.7153 214.765 66.0777Z" fill="white"/>
<path d="M229.891 68.0307C228.724 68.0307 227.638 67.8293 226.693 67.4267C225.747 67.0441 224.822 66.4401 223.957 65.6751L223.595 65.3529L224.923 63.8228L225.285 64.1651C225.647 64.5073 226.009 64.7892 226.371 65.0509C226.713 65.2925 227.075 65.4737 227.457 65.6348C227.819 65.7757 228.201 65.8965 228.624 65.9771C229.408 66.1381 230.454 66.1583 231.239 65.9167C231.621 65.7959 231.922 65.6348 232.184 65.4133C232.445 65.212 232.626 64.9704 232.767 64.7087C232.908 64.4469 232.968 64.1449 232.968 63.8228C232.968 63.4805 232.928 63.1987 232.828 62.9571C232.747 62.7557 232.586 62.5544 232.365 62.3732C232.103 62.1719 231.741 61.9705 231.299 61.8095C230.816 61.6283 230.193 61.4471 229.428 61.3061C228.563 61.1249 227.819 60.9034 227.195 60.682C226.552 60.4404 226.009 60.1384 225.606 59.7961C225.164 59.4337 224.842 58.9908 224.641 58.5076C224.44 58.0445 224.339 57.5009 224.339 56.917C224.339 56.2929 224.48 55.7292 224.742 55.2057C225.003 54.7024 225.345 54.2594 225.787 53.8769C226.23 53.5145 226.753 53.2125 227.356 53.0112C227.94 52.8098 228.604 52.7092 229.308 52.7092C230.374 52.7092 231.319 52.8702 232.103 53.1521C232.888 53.4541 233.652 53.9172 234.397 54.501L234.779 54.803L233.491 56.3936L233.109 56.0714C232.506 55.548 231.882 55.1654 231.259 54.944C230.233 54.5816 228.966 54.4809 228.02 54.803C227.658 54.9238 227.356 55.0849 227.095 55.2862C226.854 55.4876 226.673 55.709 226.552 55.9506C226.431 56.1922 226.371 56.454 226.371 56.756C226.371 57.0982 226.411 57.3801 226.512 57.6217C226.592 57.8432 226.753 58.0445 226.974 58.2458C227.236 58.4472 227.598 58.6485 228.081 58.8297C228.583 59.0109 229.227 59.1921 230.032 59.3733C231.741 59.7156 232.968 60.2189 233.753 60.8833C234.578 61.588 235 62.5343 235 63.702C235 64.3664 234.859 64.9704 234.598 65.4939C234.336 66.0375 233.974 66.4804 233.512 66.8629C233.049 67.2253 232.526 67.5273 231.902 67.7287C231.299 67.93 230.615 68.0307 229.891 68.0307ZM224.983 65.2523C225.285 65.4939 225.606 65.7355 225.908 65.9167C225.868 65.9167 225.848 65.8764 225.808 65.8563C225.546 65.6751 225.264 65.4536 224.983 65.2321H224.963L224.983 65.2523ZM225.606 55.6285C225.425 55.9909 225.325 56.4137 225.325 56.8566C225.325 57.36 225.405 57.7626 225.546 58.125C225.687 58.4673 225.908 58.7693 226.23 59.031C226.572 59.3129 227.014 59.5545 227.558 59.776C228.121 59.9974 228.825 60.1786 229.629 60.3598C230.434 60.5209 231.118 60.7021 231.661 60.9034C232.204 61.1048 232.667 61.3464 232.989 61.6283C233.351 61.9101 233.612 62.2524 233.753 62.6349C233.894 62.9973 233.954 63.3799 233.954 63.8027C233.954 64.3261 233.853 64.7691 233.632 65.1717C233.572 65.2925 233.512 65.3932 233.431 65.514C233.532 65.3731 233.612 65.2321 233.693 65.0711C233.894 64.6684 233.994 64.2255 233.994 63.7423C233.994 62.8363 233.693 62.1517 233.089 61.6484C232.445 61.1048 231.339 60.6618 229.81 60.3598C228.945 60.1786 228.262 59.9974 227.698 59.776C227.115 59.5545 226.652 59.3129 226.31 59.031C225.948 58.729 225.687 58.3868 225.546 58.0042C225.405 57.662 225.345 57.2593 225.345 56.8365C225.345 56.4137 225.425 56.0312 225.586 55.6688M231.279 53.9172C231.379 53.9574 231.5 53.9776 231.601 54.0178C232.184 54.2192 232.787 54.5614 233.351 55.0044L233.391 54.9641C232.848 54.5816 232.305 54.2796 231.762 54.0581C231.621 53.9977 231.46 53.9574 231.279 53.9172Z" fill="white"/>
<path d="M233.431 61.2457C232.707 60.6417 231.54 60.1786 229.931 59.8363C229.106 59.6551 228.423 59.4739 227.9 59.2726C227.377 59.0713 226.954 58.8498 226.652 58.6082C226.351 58.3666 226.15 58.0847 226.029 57.8029C225.908 57.5009 225.868 57.1787 225.868 56.7962V56.7559C225.868 56.3935 225.948 56.0513 226.109 55.7493C226.27 55.4271 226.491 55.1453 226.793 54.9238C227.095 54.6822 227.457 54.501 227.859 54.3601C228.282 54.2191 228.744 54.1587 229.267 54.1587C230.032 54.1587 230.756 54.2795 231.42 54.5211C232.083 54.7627 232.747 55.1654 233.411 55.7291L234.075 54.9238C233.371 54.3601 232.647 53.9373 231.922 53.6554C231.178 53.3735 230.313 53.2326 229.308 53.2326C228.664 53.2326 228.06 53.3333 227.517 53.5145C226.974 53.6957 226.512 53.9574 226.109 54.2997C225.707 54.6419 225.405 55.0245 225.184 55.4674C224.963 55.9103 224.842 56.3935 224.842 56.917V56.9573C224.842 57.4807 224.923 57.9639 225.104 58.3666C225.264 58.7693 225.546 59.1317 225.928 59.4538C226.31 59.776 226.793 60.0377 227.397 60.2592C228 60.5008 228.704 60.7021 229.549 60.8631C230.354 61.0242 230.997 61.2054 231.5 61.3866C232.003 61.5678 232.405 61.7893 232.707 62.0309C233.009 62.2725 233.21 62.5342 233.33 62.8362C233.451 63.1382 233.512 63.4604 233.512 63.8429V63.8832C233.512 64.2858 233.431 64.6482 233.25 64.9905C233.069 65.3328 232.848 65.6146 232.526 65.8764C232.224 66.118 231.842 66.3193 231.42 66.4401C230.977 66.581 230.514 66.6414 229.991 66.6414C229.468 66.6414 228.986 66.6012 228.563 66.5206C228.121 66.42 227.718 66.3193 227.316 66.1381C226.914 65.977 226.532 65.7556 226.15 65.4938C225.767 65.2321 225.385 64.9301 225.003 64.5677L224.319 65.3328C225.164 66.0777 226.029 66.6414 226.914 67.0038C227.799 67.3662 228.805 67.5676 229.931 67.5676C230.615 67.5676 231.218 67.4669 231.782 67.2857C232.345 67.1045 232.828 66.8428 233.23 66.5005C233.632 66.1784 233.954 65.7757 234.175 65.2925C234.417 64.8294 234.517 64.306 234.517 63.7624V63.7221C234.517 62.6953 234.155 61.89 233.451 61.286" fill="white"/>
<path d="M235 46.5685V40.2667C235 40.1258 234.879 40.0251 234.759 40.0251H219.773C219.632 40.0251 219.532 40.1459 219.512 40.2667V46.5685C219.512 46.7094 219.612 46.8101 219.753 46.8101H234.759C234.899 46.8101 235 46.6893 235 46.5685Z" fill="white"/>
<path d="M138.349 17.8986C138.349 17.8986 138.208 17.7375 138.128 17.7375H130.745C130.745 17.7375 130.564 17.7979 130.524 17.8986L118.455 46.4678C118.395 46.6289 118.516 46.8302 118.697 46.8302H126.562C126.662 46.8302 126.763 46.7698 126.803 46.6691L128.754 41.7767C128.754 41.7767 128.835 41.6761 128.895 41.6358L137.806 37.9313C138.027 37.8306 138.007 37.5286 137.786 37.4481L131.409 35.5555C131.268 35.5153 131.188 35.3542 131.248 35.2133L134.165 27.8444C134.245 27.623 134.547 27.623 134.628 27.8444L138.449 37.6293L141.949 46.649C141.949 46.649 142.09 46.8101 142.191 46.8101H150.217C150.398 46.8101 150.518 46.6289 150.438 46.4477L138.369 17.8784L138.349 17.8986Z" fill="white"/>
<path d="M208.992 46.8302H217.621C217.822 46.8302 217.943 46.6088 217.822 46.4276L211.385 37.0051C211.305 36.8843 211.345 36.7031 211.486 36.6427C213.175 35.8777 214.523 34.8106 215.529 33.4214C216.595 31.9718 217.138 30.1195 217.138 27.8847V27.8042C217.138 24.9654 216.293 22.7306 214.584 21.0796C213.618 20.0931 212.371 19.328 210.822 18.7643C209.293 18.2207 207.403 17.9388 205.17 17.9388H190.446C190.184 17.9388 190.104 18.3012 190.325 18.422C191.794 19.167 193.101 20.0931 194.227 21.2004C195.294 22.2474 196.199 23.4353 196.923 24.7439C196.963 24.8245 197.044 24.8647 197.144 24.8647H204.768C206.115 24.8647 207.161 25.1466 207.946 25.7103C208.71 26.2741 209.092 27.1398 209.092 28.2874V28.3679C209.092 29.4149 208.73 30.2403 207.986 30.8645C207.242 31.4886 206.196 31.7906 204.808 31.7906H199.337C199.135 31.7906 199.015 32.0121 199.135 32.1731L208.77 46.6893C208.77 46.6893 208.891 46.8101 208.972 46.8101" fill="white"/>
<path d="M193.383 22.1064C192.055 20.8179 190.486 19.771 188.656 19.026C186.825 18.261 184.854 17.8986 182.702 17.8986C180.55 17.8986 178.578 18.2811 176.748 19.026C174.917 19.771 173.328 20.8179 171.981 22.1266C170.633 23.4352 169.587 24.9654 168.823 26.7371C168.058 28.5088 167.696 30.3611 167.696 32.3543V32.4349C167.696 34.4281 168.078 36.2803 168.823 38.0319C169.587 39.7835 170.613 41.3137 171.94 42.6022C173.268 43.8907 174.837 44.9175 176.667 45.6826C178.498 46.4477 180.469 46.8101 182.621 46.8101C184.774 46.8101 186.745 46.4275 188.575 45.6826C190.406 44.9377 191.995 43.8907 193.343 42.5821C194.69 41.2734 195.736 39.7433 196.501 37.9715C197.265 36.1998 197.627 34.3274 197.627 32.3543V32.2738C197.627 30.2806 197.245 28.4082 196.501 26.6767C195.736 24.9251 194.71 23.4151 193.383 22.1064ZM189.762 32.4349C189.762 33.4415 189.581 34.3878 189.239 35.2938C188.897 36.1998 188.414 36.985 187.811 37.6494C187.208 38.3339 186.463 38.8574 185.578 39.2601C184.713 39.6627 183.728 39.8641 182.682 39.8641C181.636 39.8641 180.65 39.6627 179.765 39.2601C178.9 38.8574 178.136 38.2937 177.512 37.6091C176.889 36.9246 176.406 36.1193 176.064 35.2334C175.722 34.3274 175.541 33.3811 175.541 32.3745V32.2939C175.541 31.2873 175.702 30.341 176.044 29.435C176.366 28.529 176.848 27.7438 177.472 27.0592C178.096 26.3948 178.84 25.8512 179.705 25.4486C180.57 25.0459 181.535 24.8446 182.581 24.8446C183.627 24.8446 184.613 25.0459 185.478 25.4687C186.363 25.8714 187.107 26.4351 187.751 27.1196C188.394 27.8042 188.877 28.6095 189.219 29.4954C189.561 30.4014 189.742 31.3476 189.742 32.3543V32.4349H189.762Z" fill="white"/>
<path d="M118.194 42.6626C118.194 42.6626 118.295 42.5418 118.295 42.4613V30.2806C118.295 30.1396 118.174 30.039 118.033 30.039H105.723C105.582 30.039 105.461 30.1598 105.461 30.2806V35.4347C105.461 35.5756 105.582 35.6763 105.723 35.6763H110.711C110.852 35.6763 110.953 35.7971 110.953 35.9381V38.9379C110.953 38.9379 110.913 39.099 110.832 39.1594C109.686 39.8842 108.217 40.2466 106.467 40.2466C105.341 40.2466 104.335 40.0453 103.41 39.6627C102.485 39.2802 101.7 38.7366 101.016 38.0722C100.332 37.3877 99.8093 36.5823 99.4472 35.6159C99.065 34.6696 98.884 33.6227 98.884 32.5154V32.4348C98.884 31.3678 99.065 30.3812 99.4472 29.4551C99.8093 28.529 100.332 27.7236 100.956 27.019C101.599 26.3344 102.344 25.7908 103.209 25.3882C104.074 24.9855 104.999 24.7842 106.025 24.7842C107.413 24.7842 108.619 25.0056 109.665 25.4486C110.028 25.6096 110.39 25.7908 110.752 25.9922C110.913 26.0928 111.134 25.9922 111.134 25.7707V18.724C111.134 18.6032 111.053 18.5227 110.953 18.4824C109.484 18.0798 107.835 17.8784 105.984 17.8784C103.832 17.8784 101.841 18.2408 99.9903 19.0059C98.1397 19.7508 96.5708 20.7776 95.2432 22.0863C93.9156 23.395 92.8898 24.9452 92.1254 26.717C91.3812 28.4887 90.999 30.3812 90.999 32.3946V32.4751C90.999 34.6092 91.3812 36.5421 92.1456 38.3138C92.9099 40.0855 93.976 41.5955 95.3237 42.8841C96.6714 44.1525 98.2805 45.139 100.111 45.8437C101.962 46.5483 103.953 46.8906 106.145 46.8906C108.7 46.8906 110.973 46.4879 112.984 45.6625C114.956 44.8571 116.685 43.8505 118.154 42.6626" fill="white"/>
<path d="M174.254 46.347C173.067 45.6625 172.001 44.8572 171.055 43.9109C169.869 42.7432 168.883 41.4144 168.099 39.9245C168.058 39.844 167.978 39.8037 167.877 39.8037H159.892C159.751 39.8037 159.65 39.6829 159.65 39.5621V18.2006C159.65 18.0597 159.53 17.959 159.389 17.959H151.906C151.765 17.959 151.645 18.0798 151.645 18.2006V46.5685C151.645 46.7094 151.765 46.8101 151.906 46.8101H174.153C174.415 46.8101 174.495 46.4678 174.274 46.347" fill="white"/>
<path d="M234.738 29.133H219.753C219.612 29.133 219.491 29.2538 219.491 29.3746V35.1931C219.491 35.3341 219.612 35.4549 219.753 35.4549H234.738C234.879 35.4549 234.98 35.3341 234.98 35.1931V29.3746C234.98 29.2337 234.859 29.133 234.738 29.133Z" fill="white"/>
<path d="M219.753 24.7641H234.738C234.879 24.7641 235 24.6433 235 24.5225V18.2207C235 18.0798 234.879 17.9791 234.738 17.9791H219.733C219.592 17.9791 219.491 18.0999 219.491 18.2207V24.5225C219.491 24.6634 219.612 24.7641 219.753 24.7641Z" fill="white"/>
</g>
<defs>
<clipPath id="clip0_4020_32">
<rect width="235" height="81.3992" fill="white"/>
</clipPath>
</defs>
</svg>
